<svg width="1200" height="513" viewBox="0 0 1200 513" fill="none" xmlns="http://www.w3.org/2000/svg">
<g clip-path="url(#clip0_441_1518)">
<rect width="1200" height="513" fill="#2C0926"/>
<g filter="url(#filter0_d_441_1518)">
<path d="M86.5389 111V102.456C88.7789 100.28 90.9549 98.136 93.0669 96.024C95.2429 93.912 97.2909 91.864 99.2109 89.88C102.283 86.808 104.811 83.992 106.795 81.432C108.843 78.872 110.379 76.344 111.403 73.848C112.427 71.288 112.939 68.568 112.939 65.688C112.939 61.976 112.043 59.096 110.251 57.048C108.523 55 106.155 53.976 103.147 53.976C102.763 53.976 102.347 53.976 101.899 53.976C101.515 53.976 101.131 54.008 100.747 54.072L99.4989 60.888C99.0509 64.216 98.1229 66.424 96.7149 67.512C95.3069 68.536 93.8669 69.048 92.3949 69.048C91.0509 69.048 89.8029 68.696 88.6509 67.992C87.5629 67.288 86.7309 66.328 86.1549 65.112C86.2829 61.592 87.3709 58.648 89.4189 56.28C91.4669 53.848 94.1549 52.024 97.4829 50.808C100.811 49.592 104.459 48.984 108.427 48.984C113.099 48.984 116.875 49.72 119.755 51.192C122.699 52.664 124.875 54.648 126.283 57.144C127.691 59.64 128.395 62.456 128.395 65.592C128.395 68.664 127.595 71.64 125.995 74.52C124.395 77.4 121.899 80.344 118.507 83.352C115.115 86.36 110.763 89.688 105.451 93.336C104.171 94.232 102.827 95.16 101.419 96.12C100.011 97.08 98.5709 98.104 97.0989 99.192H129.643V111H86.5389ZM151.53 80.76C151.53 87.928 151.882 93.432 152.586 97.272C153.29 101.112 154.25 103.768 155.466 105.24C156.682 106.712 158.058 107.448 159.594 107.448C161.13 107.448 162.506 106.712 163.722 105.24C164.938 103.768 165.898 101.112 166.602 97.272C167.37 93.368 167.754 87.864 167.754 80.76C167.754 73.592 167.37 68.088 166.602 64.248C165.898 60.344 164.938 57.656 163.722 56.184C162.506 54.712 161.13 53.976 159.594 53.976C158.058 53.976 156.682 54.712 155.466 56.184C154.25 57.656 153.29 60.312 152.586 64.152C151.882 67.992 151.53 73.528 151.53 80.76ZM159.594 48.984C163.562 48.984 167.274 50.104 170.73 52.344C174.186 54.52 176.97 57.944 179.082 62.616C181.258 67.288 182.346 73.336 182.346 80.76C182.346 88.12 181.258 94.136 179.082 98.808C176.97 103.48 174.186 106.936 170.73 109.176C167.274 111.352 163.562 112.44 159.594 112.44C155.626 112.44 151.914 111.352 148.458 109.176C145.002 106.936 142.218 103.48 140.106 98.808C138.058 94.136 137.034 88.12 137.034 80.76C137.034 73.336 138.058 67.288 140.106 62.616C142.218 57.944 145.002 54.52 148.458 52.344C151.914 50.104 155.626 48.984 159.594 48.984ZM200.009 79.896C197.577 79.896 195.529 79.064 193.865 77.4C192.201 75.736 191.369 73.72 191.369 71.352C191.369 68.984 192.201 66.936 193.865 65.208C195.529 63.48 197.577 62.616 200.009 62.616C202.441 62.616 204.489 63.48 206.153 65.208C207.817 66.936 208.649 68.984 208.649 71.352C208.649 73.72 207.817 75.736 206.153 77.4C204.489 79.064 202.441 79.896 200.009 79.896ZM200.009 112.44C197.577 112.44 195.529 111.608 193.865 109.944C192.201 108.28 191.369 106.264 191.369 103.896C191.369 101.528 192.201 99.48 193.865 97.752C195.529 96.024 197.577 95.16 200.009 95.16C202.441 95.16 204.489 96.024 206.153 97.752C207.817 99.48 208.649 101.528 208.649 103.896C208.649 106.264 207.817 108.28 206.153 109.944C204.489 111.608 202.441 112.44 200.009 112.44ZM232.343 80.76C232.343 87.928 232.695 93.432 233.399 97.272C234.103 101.112 235.063 103.768 236.279 105.24C237.495 106.712 238.871 107.448 240.407 107.448C241.943 107.448 243.319 106.712 244.535 105.24C245.751 103.768 246.711 101.112 247.415 97.272C248.183 93.368 248.567 87.864 248.567 80.76C248.567 73.592 248.183 68.088 247.415 64.248C246.711 60.344 245.751 57.656 244.535 56.184C243.319 54.712 241.943 53.976 240.407 53.976C238.871 53.976 237.495 54.712 236.279 56.184C235.063 57.656 234.103 60.312 233.399 64.152C232.695 67.992 232.343 73.528 232.343 80.76ZM240.407 48.984C244.375 48.984 248.087 50.104 251.543 52.344C254.999 54.52 257.783 57.944 259.895 62.616C262.071 67.288 263.159 73.336 263.159 80.76C263.159 88.12 262.071 94.136 259.895 98.808C257.783 103.48 254.999 106.936 251.543 109.176C248.087 111.352 244.375 112.44 240.407 112.44C236.439 112.44 232.727 111.352 229.271 109.176C225.815 106.936 223.031 103.48 220.919 98.808C218.871 94.136 217.847 88.12 217.847 80.76C217.847 73.336 218.871 67.288 220.919 62.616C223.031 57.944 225.815 54.52 229.271 52.344C232.727 50.104 236.439 48.984 240.407 48.984ZM284.374 80.76C284.374 87.928 284.726 93.432 285.43 97.272C286.134 101.112 287.094 103.768 288.31 105.24C289.526 106.712 290.902 107.448 292.438 107.448C293.974 107.448 295.35 106.712 296.566 105.24C297.782 103.768 298.742 101.112 299.446 97.272C300.214 93.368 300.598 87.864 300.598 80.76C300.598 73.592 300.214 68.088 299.446 64.248C298.742 60.344 297.782 57.656 296.566 56.184C295.35 54.712 293.974 53.976 292.438 53.976C290.902 53.976 289.526 54.712 288.31 56.184C287.094 57.656 286.134 60.312 285.43 64.152C284.726 67.992 284.374 73.528 284.374 80.76ZM292.438 48.984C296.406 48.984 300.118 50.104 303.574 52.344C307.03 54.52 309.814 57.944 311.926 62.616C314.102 67.288 315.19 73.336 315.19 80.76C315.19 88.12 314.102 94.136 311.926 98.808C309.814 103.48 307.03 106.936 303.574 109.176C300.118 111.352 296.406 112.44 292.438 112.44C288.47 112.44 284.758 111.352 281.302 109.176C277.846 106.936 275.062 103.48 272.95 98.808C270.902 94.136 269.878 88.12 269.878 80.76C269.878 73.336 270.902 67.288 272.95 62.616C275.062 57.944 277.846 54.52 281.302 52.344C284.758 50.104 288.47 48.984 292.438 48.984Z" fill="white"/>
</g>
<path d="M0 364H555C566.201 364 571.802 364 576.08 366.18C579.843 368.097 582.903 371.157 584.82 374.92C587 379.198 587 384.799 587 396V435C587 446.201 587 451.802 584.82 456.08C582.903 459.843 579.843 462.903 576.08 464.82C571.802 467 566.201 467 555 467H0V364Z" fill="white"/>
<g filter="url(#filter1_d_441_1518)">
<path d="M97.9154 421.328L100.543 420.608V406.82C100.543 406.196 100.495 405.788 100.399 405.596C100.303 405.38 100.051 405.188 99.6434 405.02L97.8434 403.976L97.9514 400.736H117.499C117.667 403.256 117.751 405.716 117.751 408.116L115.087 408.296L112.531 405.128L107.095 404.984V410.852L114.763 410.204V415.748L107.095 414.92V420.716L113.071 420.608L115.843 417.44L118.507 417.62C118.411 420.14 118.231 422.6 117.967 425H98.0954L97.9154 421.328ZM120.309 421.544L122.541 420.896V412.184C122.541 411.656 122.505 411.32 122.433 411.176C122.361 411.008 122.169 410.828 121.857 410.636L120.273 409.772L120.381 407.072L121.173 406.928C124.317 406.304 126.585 405.968 127.977 405.92C128.169 406.424 128.325 406.976 128.445 407.576C129.909 406.904 131.097 406.448 132.009 406.208C132.945 405.944 133.821 405.812 134.637 405.812C138.453 405.812 140.361 408.092 140.361 412.652V419.708C140.361 420.212 140.397 420.548 140.469 420.716C140.541 420.884 140.745 421.064 141.081 421.256L142.809 422.264L142.665 424.964H132.729L132.549 421.544L134.313 421.04V414.236C134.313 413.156 134.277 412.4 134.205 411.968C134.133 411.536 133.929 411.2 133.593 410.96C133.281 410.72 132.717 410.6 131.901 410.6C131.037 410.6 129.945 410.732 128.625 410.996V419.708C128.625 420.212 128.661 420.548 128.733 420.716C128.805 420.884 128.997 421.064 129.309 421.256L131.073 422.264L130.929 424.964H120.489L120.309 421.544ZM151.377 425.468C149.265 425.468 147.705 424.952 146.697 423.92C145.689 422.864 145.185 421.268 145.185 419.132V410.384H142.665V407.756L149.145 401.852L151.233 402.104V406.172H157.281V410.42H151.233V417.836C151.233 418.988 151.389 419.756 151.701 420.14C152.037 420.524 152.673 420.716 153.609 420.716C154.401 420.716 155.505 420.608 156.921 420.392L157.353 424.064C156.489 424.472 155.517 424.808 154.437 425.072C153.381 425.336 152.361 425.468 151.377 425.468ZM159.333 421.58L161.529 420.932V412.184C161.529 411.656 161.493 411.32 161.421 411.176C161.349 411.008 161.157 410.828 160.845 410.636L159.261 409.772L159.369 407.072C159.777 406.976 160.125 406.916 160.413 406.892C163.317 406.292 165.465 405.968 166.857 405.92C167.073 406.544 167.277 407.324 167.469 408.26C168.909 407.132 170.133 406.352 171.141 405.92H173.193C173.169 406.832 173.109 407.828 173.013 408.908C172.917 409.964 172.797 410.816 172.653 411.464C171.789 411.416 171.153 411.392 170.745 411.392C169.737 411.392 168.693 411.452 167.613 411.572V419.744C167.613 420.248 167.649 420.584 167.721 420.752C167.793 420.92 167.985 421.1 168.297 421.292L170.457 422.444L170.313 425H159.513L159.333 421.58ZM183.013 425.432C180.205 425.432 178.033 424.58 176.497 422.876C174.985 421.172 174.229 418.82 174.229 415.82C174.229 413.732 174.601 411.944 175.345 410.456C176.089 408.944 177.145 407.792 178.513 407C179.881 406.208 181.477 405.812 183.301 405.812C186.013 405.812 188.089 406.676 189.529 408.404C190.993 410.132 191.689 412.592 191.617 415.784L180.673 417.8C181.009 418.808 181.477 419.552 182.077 420.032C182.701 420.488 183.517 420.716 184.525 420.716C185.221 420.716 186.049 420.62 187.009 420.428C187.969 420.212 188.941 419.924 189.925 419.564L190.753 423.128C189.865 423.8 188.713 424.352 187.297 424.784C185.881 425.216 184.453 425.432 183.013 425.432ZM185.713 412.76C185.665 411.848 185.401 411.188 184.921 410.78C184.465 410.348 183.817 410.132 182.977 410.132C182.281 410.132 181.621 410.228 180.997 410.42C180.493 411.596 180.265 412.868 180.313 414.236L185.713 412.76ZM201.729 433.208C198.969 433.208 196.881 432.776 195.465 431.912C194.073 431.048 193.377 429.776 193.377 428.096C193.377 426.32 194.193 424.76 195.825 423.416C195.321 422.912 195.069 422.36 195.069 421.76C195.069 420.896 195.633 419.672 196.761 418.088C194.793 417.056 193.809 415.28 193.809 412.76C193.809 410.552 194.553 408.848 196.041 407.648C197.553 406.424 199.725 405.812 202.557 405.812C204.549 405.812 206.181 406.112 207.453 406.712L211.773 405.38H213.465V410.6H210.657C210.777 411.2 210.837 411.788 210.837 412.364C210.837 414.572 210.093 416.252 208.605 417.404C207.117 418.556 204.933 419.132 202.053 419.132C201.069 419.132 200.181 419.06 199.389 418.916V419.42C199.389 419.804 199.545 420.08 199.857 420.248C200.193 420.392 200.901 420.536 201.981 420.68L205.221 421.148C207.765 421.508 209.517 422.132 210.477 423.02C211.461 423.908 211.953 425.048 211.953 426.44C211.953 428.6 211.065 430.268 209.289 431.444C207.513 432.62 204.993 433.208 201.729 433.208ZM202.593 415.604C203.097 415.604 203.673 415.532 204.321 415.388C204.417 415.1 204.501 414.668 204.573 414.092C204.669 413.516 204.717 412.988 204.717 412.508C204.717 411.428 204.477 410.624 203.997 410.096C203.541 409.568 202.821 409.304 201.837 409.304C201.357 409.304 200.829 409.376 200.253 409.52C200.133 409.808 200.025 410.228 199.929 410.78C199.857 411.332 199.821 411.86 199.821 412.364C199.821 413.468 200.049 414.284 200.505 414.812C200.961 415.34 201.657 415.604 202.593 415.604ZM203.385 429.14C204.489 429.14 205.329 429.044 205.905 428.852C206.049 428.564 206.121 428.18 206.121 427.7C206.121 427.124 205.917 426.68 205.509 426.368C205.101 426.08 204.369 425.864 203.313 425.72L202.161 425.54C201.105 425.42 200.037 425.252 198.957 425.036C198.813 425.684 198.741 426.2 198.741 426.584C198.741 427.448 199.125 428.084 199.893 428.492C200.661 428.924 201.825 429.14 203.385 429.14ZM220.099 425.468C218.467 425.468 217.159 425.024 216.175 424.136C215.191 423.224 214.699 422.06 214.699 420.644C214.699 418.748 215.647 417.26 217.543 416.18C219.463 415.1 222.247 414.488 225.895 414.344C225.895 413.216 225.799 412.388 225.607 411.86C225.439 411.308 225.115 410.936 224.635 410.744C224.179 410.528 223.471 410.42 222.511 410.42C221.527 410.42 220.831 410.456 220.423 410.528L218.947 413.444L216.283 413.264C215.875 411.344 215.587 409.352 215.419 407.288C216.763 406.832 218.227 406.472 219.811 406.208C221.419 405.944 222.919 405.812 224.311 405.812C226.855 405.812 228.679 406.316 229.783 407.324C230.887 408.308 231.439 409.952 231.439 412.256V419.78C231.439 420.212 231.475 420.512 231.547 420.68C231.643 420.848 231.835 421.016 232.123 421.184L233.563 422.012L233.419 424.244C230.635 424.892 228.439 425.252 226.831 425.324C226.783 425.18 226.711 424.928 226.615 424.568C226.519 424.184 226.435 423.824 226.363 423.488C225.427 424.088 224.395 424.568 223.267 424.928C222.163 425.288 221.107 425.468 220.099 425.468ZM222.511 421.4C223.471 421.4 224.635 421.076 226.003 420.428L225.859 417.692C225.283 417.644 224.899 417.62 224.707 417.62C224.059 417.62 223.303 417.692 222.439 417.836C221.575 417.956 220.891 418.1 220.387 418.268C220.315 418.58 220.279 418.868 220.279 419.132C220.279 419.852 220.471 420.416 220.855 420.824C221.263 421.208 221.815 421.4 222.511 421.4ZM250.006 425.108C247.414 425.108 245.026 425 242.842 424.784L242.662 421.328L245.29 420.608V406.892C245.29 406.268 245.242 405.86 245.146 405.668C245.05 405.452 244.798 405.26 244.39 405.092L242.518 404.048L242.734 401.06C245.23 400.868 247.33 400.724 249.034 400.628C250.738 400.508 252.106 400.448 253.138 400.448C256.45 400.448 259.102 400.832 261.094 401.6C263.11 402.368 264.574 403.58 265.486 405.236C266.422 406.892 266.89 409.088 266.89 411.824C266.89 415.28 266.098 418.076 264.514 420.212C263.098 422.06 261.214 423.344 258.862 424.064C256.534 424.76 253.582 425.108 250.006 425.108ZM254.542 419.96C256.558 419.96 258.154 419.72 259.33 419.24C259.546 418.64 259.738 417.704 259.906 416.432C260.098 415.16 260.194 413.972 260.194 412.868C260.194 410.156 259.63 408.152 258.502 406.856C257.398 405.56 255.706 404.912 253.426 404.912C253.114 404.912 252.826 404.924 252.562 404.948C252.298 404.972 252.046 404.996 251.806 405.02V419.78C252.766 419.9 253.678 419.96 254.542 419.96ZM278.287 425.432C275.479 425.432 273.307 424.58 271.771 422.876C270.259 421.172 269.503 418.82 269.503 415.82C269.503 413.732 269.875 411.944 270.619 410.456C271.363 408.944 272.419 407.792 273.787 407C275.155 406.208 276.751 405.812 278.575 405.812C281.287 405.812 283.363 406.676 284.803 408.404C286.267 410.132 286.963 412.592 286.891 415.784L275.947 417.8C276.283 418.808 276.751 419.552 277.351 420.032C277.975 420.488 278.791 420.716 279.799 420.716C280.495 420.716 281.323 420.62 282.283 420.428C283.243 420.212 284.215 419.924 285.199 419.564L286.027 423.128C285.139 423.8 283.987 424.352 282.571 424.784C281.155 425.216 279.727 425.432 278.287 425.432ZM280.987 412.76C280.939 411.848 280.675 411.188 280.195 410.78C279.739 410.348 279.091 410.132 278.251 410.132C277.555 410.132 276.895 410.228 276.271 410.42C275.767 411.596 275.539 412.868 275.587 414.236L280.987 412.76ZM306.551 425.54C302.903 425.54 300.095 424.424 298.127 422.192C296.159 419.96 295.175 416.804 295.175 412.724C295.175 410.132 295.643 407.9 296.579 406.028C297.539 404.132 298.919 402.692 300.719 401.708C302.519 400.7 304.655 400.196 307.127 400.196C309.935 400.196 312.827 400.832 315.803 402.104C315.587 404.264 315.239 406.652 314.759 409.268L312.023 409.448L309.539 405.812C308.483 405.5 307.319 405.344 306.047 405.344C305.087 405.344 304.175 405.428 303.311 405.596C302.927 406.34 302.615 407.324 302.375 408.548C302.135 409.772 302.015 411.008 302.015 412.256C302.015 414.92 302.495 416.9 303.455 418.196C304.439 419.468 305.987 420.128 308.099 420.176C308.939 420.176 309.995 420.056 311.267 419.816C312.563 419.552 313.823 419.216 315.047 418.808L316.163 422.768C314.915 423.584 313.403 424.256 311.627 424.784C309.875 425.288 308.183 425.54 306.551 425.54ZM326.732 425.432C323.924 425.432 321.752 424.58 320.216 422.876C318.704 421.172 317.948 418.82 317.948 415.82C317.948 413.732 318.32 411.944 319.064 410.456C319.808 408.944 320.864 407.792 322.232 407C323.6 406.208 325.196 405.812 327.02 405.812C329.732 405.812 331.808 406.676 333.248 408.404C334.712 410.132 335.408 412.592 335.336 415.784L324.392 417.8C324.728 418.808 325.196 419.552 325.796 420.032C326.42 420.488 327.236 420.716 328.244 420.716C328.94 420.716 329.768 420.62 330.728 420.428C331.688 420.212 332.66 419.924 333.644 419.564L334.472 423.128C333.584 423.8 332.432 424.352 331.016 424.784C329.6 425.216 328.172 425.432 326.732 425.432ZM329.432 412.76C329.384 411.848 329.12 411.188 328.64 410.78C328.184 410.348 327.536 410.132 326.696 410.132C326 410.132 325.34 410.228 324.716 410.42C324.212 411.596 323.984 412.868 324.032 414.236L329.432 412.76ZM336.978 421.58L339.174 420.932V412.184C339.174 411.656 339.138 411.32 339.066 411.176C338.994 411.008 338.802 410.828 338.49 410.636L336.906 409.772L337.014 407.072C337.422 406.976 337.77 406.916 338.058 406.892C340.962 406.292 343.11 405.968 344.502 405.92C344.718 406.544 344.922 407.324 345.114 408.26C346.554 407.132 347.778 406.352 348.786 405.92H350.838C350.814 406.832 350.754 407.828 350.658 408.908C350.562 409.964 350.442 410.816 350.298 411.464C349.434 411.416 348.798 411.392 348.39 411.392C347.382 411.392 346.338 411.452 345.258 411.572V419.744C345.258 420.248 345.294 420.584 345.366 420.752C345.438 420.92 345.63 421.1 345.942 421.292L348.102 422.444L347.958 425H337.158L336.978 421.58ZM360.908 425.468C358.796 425.468 357.236 424.952 356.228 423.92C355.22 422.864 354.716 421.268 354.716 419.132V410.384H352.196V407.756L358.676 401.852L360.764 402.104V406.172H366.812V410.42H360.764V417.836C360.764 418.988 360.92 419.756 361.232 420.14C361.568 420.524 362.204 420.716 363.14 420.716C363.932 420.716 365.036 420.608 366.452 420.392L366.884 424.064C366.02 424.472 365.048 424.808 363.968 425.072C362.912 425.336 361.892 425.468 360.908 425.468ZM370.305 398.36L376.425 396.74L377.901 402.212L371.817 403.868L370.305 398.36ZM368.793 421.688L371.313 420.932V412.184C371.313 411.656 371.265 411.32 371.169 411.176C371.097 411.008 370.893 410.828 370.557 410.636L368.973 409.772L369.153 407.072C371.145 406.688 372.681 406.412 373.761 406.244C374.865 406.052 375.873 405.944 376.785 405.92C377.097 406.952 377.289 407.72 377.361 408.224V419.744C377.361 420.248 377.397 420.584 377.469 420.752C377.541 420.92 377.745 421.1 378.081 421.292L379.845 422.3L379.701 425H368.901L368.793 421.688ZM397.509 398.72L403.629 397.1L405.141 402.572L399.021 404.228L397.509 398.72ZM381.273 421.688L383.793 420.932V410.384L381.273 410.348V406.82L383.793 406.676V404.336C383.793 402.176 384.417 400.496 385.665 399.296C386.937 398.072 388.689 397.46 390.921 397.46C392.385 397.46 394.005 397.616 395.781 397.928L394.953 402.824C393.897 402.536 392.973 402.344 392.181 402.248C391.413 402.128 390.633 402.08 389.841 402.104V406.352L404.565 406.1V419.744C404.565 420.248 404.601 420.584 404.673 420.752C404.745 420.92 404.949 421.1 405.285 421.292L407.049 422.3L406.941 425H396.141L395.961 421.688L398.517 420.932V412.184C398.517 411.656 398.457 411.308 398.337 411.14C398.241 410.948 397.965 410.732 397.509 410.492L389.841 410.456V419.744C389.841 420.248 389.877 420.584 389.949 420.752C390.021 420.92 390.225 421.1 390.561 421.292L392.793 422.516L392.685 425H381.381L381.273 421.688ZM416.908 425.468C414.124 425.468 411.964 424.616 410.428 422.912C408.892 421.184 408.124 418.808 408.124 415.784C408.124 412.64 408.94 410.192 410.572 408.44C412.228 406.688 414.484 405.812 417.34 405.812C419.5 405.812 421.816 406.304 424.288 407.288C424.24 407.984 424.132 408.908 423.964 410.06C423.796 411.188 423.616 412.232 423.424 413.192L421.012 413.408L418.78 410.564C418.18 410.444 417.508 410.384 416.764 410.384C416.164 410.384 415.612 410.42 415.108 410.492C414.556 411.548 414.28 413.036 414.28 414.956C414.28 416.924 414.628 418.388 415.324 419.348C416.02 420.284 417.076 420.752 418.492 420.752C419.164 420.752 419.98 420.656 420.94 420.464C421.9 420.248 422.884 419.948 423.892 419.564L424.756 423.164C423.796 423.836 422.596 424.388 421.156 424.82C419.74 425.252 418.324 425.468 416.908 425.468ZM432.196 425.468C430.564 425.468 429.256 425.024 428.272 424.136C427.288 423.224 426.796 422.06 426.796 420.644C426.796 418.748 427.744 417.26 429.64 416.18C431.56 415.1 434.344 414.488 437.992 414.344C437.992 413.216 437.896 412.388 437.704 411.86C437.536 411.308 437.212 410.936 436.732 410.744C436.276 410.528 435.568 410.42 434.608 410.42C433.624 410.42 432.928 410.456 432.52 410.528L431.044 413.444L428.38 413.264C427.972 411.344 427.684 409.352 427.516 407.288C428.86 406.832 430.324 406.472 431.908 406.208C433.516 405.944 435.016 405.812 436.408 405.812C438.952 405.812 440.776 406.316 441.88 407.324C442.984 408.308 443.536 409.952 443.536 412.256V419.78C443.536 420.212 443.572 420.512 443.644 420.68C443.74 420.848 443.932 421.016 444.22 421.184L445.66 422.012L445.516 424.244C442.732 424.892 440.536 425.252 438.928 425.324C438.88 425.18 438.808 424.928 438.712 424.568C438.616 424.184 438.532 423.824 438.46 423.488C437.524 424.088 436.492 424.568 435.364 424.928C434.26 425.288 433.204 425.468 432.196 425.468ZM434.608 421.4C435.568 421.4 436.732 421.076 438.1 420.428L437.956 417.692C437.38 417.644 436.996 417.62 436.804 417.62C436.156 417.62 435.4 417.692 434.536 417.836C433.672 417.956 432.988 418.1 432.484 418.268C432.412 418.58 432.376 418.868 432.376 419.132C432.376 419.852 432.568 420.416 432.952 420.824C433.36 421.208 433.912 421.4 434.608 421.4ZM454.07 425.468C451.766 425.468 449.966 424.604 448.67 422.876C447.374 421.148 446.726 418.832 446.726 415.928C446.726 412.592 447.602 410.072 449.354 408.368C451.13 406.664 453.65 405.812 456.914 405.812C457.106 405.812 457.73 405.836 458.786 405.884V403.724C458.786 403.196 458.75 402.848 458.678 402.68C458.606 402.512 458.402 402.332 458.066 402.14L456.446 401.312L456.626 398.576C458.93 398.168 460.634 397.892 461.738 397.748C462.842 397.58 463.718 397.484 464.366 397.46C464.582 398.012 464.738 398.636 464.834 399.332V419.816C464.834 420.248 464.87 420.548 464.942 420.716C465.038 420.884 465.242 421.052 465.554 421.22L466.922 422.048L466.778 424.28C464.426 424.88 462.122 425.24 459.866 425.36C459.698 424.904 459.53 424.352 459.362 423.704C457.73 424.88 455.966 425.468 454.07 425.468ZM456.158 420.86C456.95 420.86 457.838 420.596 458.822 420.068V410.744C458.102 410.432 457.178 410.276 456.05 410.276C455.138 410.276 454.262 410.396 453.422 410.636C453.23 411.092 453.074 411.716 452.954 412.508C452.858 413.3 452.81 414.176 452.81 415.136C452.81 417.104 453.074 418.556 453.602 419.492C454.154 420.404 455.006 420.86 456.158 420.86ZM477.173 425.468C474.125 425.468 471.845 424.688 470.333 423.128C468.845 421.568 468.101 419.18 468.101 415.964C468.101 413.9 468.473 412.1 469.217 410.564C469.985 409.028 471.077 407.852 472.493 407.036C473.909 406.22 475.577 405.812 477.497 405.812C483.713 405.812 486.821 409.028 486.821 415.46C486.821 418.604 485.969 421.064 484.265 422.84C482.585 424.592 480.221 425.468 477.173 425.468ZM477.749 421.256C478.229 421.256 478.649 421.22 479.009 421.148C479.369 421.052 479.753 420.908 480.161 420.716C480.305 420.164 480.425 419.456 480.521 418.592C480.617 417.728 480.665 416.9 480.665 416.108C480.665 414.164 480.353 412.688 479.729 411.68C479.129 410.672 478.229 410.168 477.029 410.168C476.237 410.168 475.433 410.276 474.617 410.492C474.449 410.852 474.317 411.44 474.221 412.256C474.125 413.048 474.077 413.96 474.077 414.992C474.077 417.008 474.389 418.556 475.013 419.636C475.661 420.716 476.573 421.256 477.749 421.256ZM495.477 425.612C493.581 425.612 491.385 425.276 488.889 424.604C489.033 422.252 489.189 420.512 489.357 419.384L491.409 418.988L493.677 421.4C494.469 421.64 495.357 421.76 496.341 421.76C496.893 421.76 497.325 421.724 497.637 421.652C497.709 421.46 497.745 421.196 497.745 420.86C497.745 420.572 497.673 420.332 497.529 420.14C497.409 419.948 497.121 419.72 496.665 419.456C496.209 419.192 495.417 418.784 494.289 418.232C492.873 417.488 491.793 416.828 491.049 416.252C490.305 415.652 489.765 415.04 489.429 414.416C489.117 413.792 488.961 413.048 488.961 412.184C488.961 410.264 489.669 408.74 491.085 407.612C492.525 406.484 494.469 405.92 496.917 405.92C497.925 405.92 498.981 406.04 500.085 406.28C501.213 406.496 502.221 406.796 503.109 407.18C503.109 408.74 503.001 410.48 502.785 412.4L500.913 412.688L498.501 410.096C497.877 409.904 496.965 409.808 495.765 409.808C495.573 409.808 495.189 409.832 494.613 409.88C494.541 410.024 494.505 410.252 494.505 410.564C494.505 410.9 494.601 411.2 494.793 411.464C494.985 411.704 495.321 411.98 495.801 412.292C496.305 412.58 497.097 413 498.177 413.552C499.761 414.32 500.949 414.992 501.741 415.568C502.557 416.12 503.121 416.684 503.433 417.26C503.769 417.836 503.937 418.532 503.937 419.348C503.937 421.316 503.181 422.852 501.669 423.956C500.181 425.06 498.117 425.612 495.477 425.612Z" fill="#8C1A77"/>
</g>
<path d="M0 126H555C566.201 126 571.802 126 576.08 128.18C579.843 130.097 582.903 133.157 584.82 136.92C587 141.198 587 146.799 587 158V197C587 208.201 587 213.802 584.82 218.08C582.903 221.843 579.843 224.903 576.08 226.82C571.802 229 566.201 229 555 229H0V126Z" fill="white"/>
<g filter="url(#filter2_d_441_1518)">
<path d="M105.518 183.328L108.146 182.608V168.892C108.146 168.268 108.098 167.86 108.002 167.668C107.906 167.452 107.654 167.26 107.246 167.092L105.374 166.048L105.59 163.132C107.414 162.844 109.142 162.64 110.774 162.52C112.406 162.376 114.158 162.304 116.03 162.304C118.622 162.304 120.698 162.58 122.258 163.132C123.842 163.684 124.994 164.548 125.714 165.724C126.458 166.9 126.83 168.46 126.83 170.404C126.83 172.924 125.918 174.904 124.094 176.344C122.294 177.784 119.822 178.504 116.678 178.504L114.698 178.432V181.168C114.698 181.744 114.734 182.116 114.806 182.284C114.902 182.452 115.118 182.62 115.454 182.788L117.65 184.084L117.506 187H105.698L105.518 183.328ZM117.002 174.508C118.298 174.508 119.246 174.376 119.846 174.112C120.11 172.936 120.242 171.7 120.242 170.404C120.242 168.988 119.966 167.98 119.414 167.38C118.886 166.78 118.022 166.48 116.822 166.48C116.414 166.48 115.706 166.528 114.698 166.624V174.292C115.346 174.436 116.114 174.508 117.002 174.508ZM128.993 183.58L131.189 182.932V174.184C131.189 173.656 131.153 173.32 131.081 173.176C131.009 173.008 130.817 172.828 130.505 172.636L128.921 171.772L129.029 169.072C129.437 168.976 129.785 168.916 130.073 168.892C132.977 168.292 135.125 167.968 136.517 167.92C136.733 168.544 136.937 169.324 137.129 170.26C138.569 169.132 139.793 168.352 140.801 167.92H142.853C142.829 168.832 142.769 169.828 142.673 170.908C142.577 171.964 142.457 172.816 142.313 173.464C141.449 173.416 140.813 173.392 140.405 173.392C139.397 173.392 138.353 173.452 137.273 173.572V181.744C137.273 182.248 137.309 182.584 137.381 182.752C137.453 182.92 137.645 183.1 137.957 183.292L140.117 184.444L139.973 187H129.173L128.993 183.58ZM152.674 187.432C149.866 187.432 147.694 186.58 146.158 184.876C144.646 183.172 143.89 180.82 143.89 177.82C143.89 175.732 144.262 173.944 145.006 172.456C145.75 170.944 146.806 169.792 148.174 169C149.542 168.208 151.138 167.812 152.962 167.812C155.674 167.812 157.75 168.676 159.19 170.404C160.654 172.132 161.35 174.592 161.278 177.784L150.334 179.8C150.67 180.808 151.138 181.552 151.738 182.032C152.362 182.488 153.178 182.716 154.186 182.716C154.882 182.716 155.71 182.62 156.67 182.428C157.63 182.212 158.602 181.924 159.586 181.564L160.414 185.128C159.526 185.8 158.374 186.352 156.958 186.784C155.542 187.216 154.114 187.432 152.674 187.432ZM155.374 174.76C155.326 173.848 155.062 173.188 154.582 172.78C154.126 172.348 153.478 172.132 152.638 172.132C151.942 172.132 151.282 172.228 150.658 172.42C150.154 173.596 149.926 174.868 149.974 176.236L155.374 174.76ZM163.059 183.58L165.291 182.932V174.184C165.291 173.656 165.255 173.32 165.183 173.176C165.111 173.008 164.919 172.828 164.607 172.636L163.023 171.772L163.131 169.072L164.103 168.892C167.055 168.292 169.239 167.968 170.655 167.92C170.847 168.424 171.003 168.94 171.123 169.468C172.419 168.868 173.523 168.448 174.435 168.208C175.371 167.944 176.223 167.812 176.991 167.812C177.927 167.812 178.803 167.992 179.619 168.352C180.435 168.688 181.047 169.144 181.455 169.72C182.823 169.048 184.047 168.568 185.127 168.28C186.231 167.968 187.275 167.812 188.259 167.812C190.227 167.812 191.679 168.376 192.615 169.504C193.551 170.632 194.019 172.348 194.019 174.652V181.744C194.019 182.248 194.055 182.584 194.127 182.752C194.199 182.92 194.403 183.1 194.739 183.292L196.467 184.3L196.323 187H186.531L186.351 183.58L188.079 183.076V176.272C188.079 175.24 188.043 174.508 187.971 174.076C187.923 173.62 187.731 173.272 187.395 173.032C187.059 172.768 186.495 172.636 185.703 172.636C185.079 172.636 184.035 172.744 182.571 172.96C182.619 173.344 182.643 173.908 182.643 174.652V181.744C182.643 182.248 182.679 182.584 182.751 182.752C182.823 182.92 183.039 183.1 183.399 183.292L185.163 184.3L185.019 187H175.155L174.975 183.58L176.703 183.076V176.272C176.703 175.216 176.667 174.472 176.595 174.04C176.547 173.584 176.355 173.236 176.019 172.996C175.683 172.756 175.131 172.636 174.363 172.636C173.523 172.636 172.503 172.744 171.303 172.96V181.744C171.303 182.248 171.339 182.584 171.411 182.752C171.483 182.92 171.675 183.1 171.987 183.292L173.751 184.3L173.607 187H163.239L163.059 183.58ZM199.234 160.36L205.354 158.74L206.83 164.212L200.746 165.868L199.234 160.36ZM197.722 183.688L200.242 182.932V174.184C200.242 173.656 200.194 173.32 200.098 173.176C200.026 173.008 199.822 172.828 199.486 172.636L197.902 171.772L198.082 169.072C200.074 168.688 201.61 168.412 202.69 168.244C203.794 168.052 204.802 167.944 205.714 167.92C206.026 168.952 206.218 169.72 206.29 170.224V181.744C206.29 182.248 206.326 182.584 206.398 182.752C206.47 182.92 206.674 183.1 207.01 183.292L208.774 184.3L208.63 187H197.83L197.722 183.688ZM218.915 187.468C215.867 187.468 213.587 186.688 212.075 185.128C210.587 183.568 209.843 181.18 209.843 177.964C209.843 175.9 210.215 174.1 210.959 172.564C211.727 171.028 212.819 169.852 214.235 169.036C215.651 168.22 217.319 167.812 219.239 167.812C225.455 167.812 228.563 171.028 228.563 177.46C228.563 180.604 227.711 183.064 226.007 184.84C224.327 186.592 221.963 187.468 218.915 187.468ZM219.491 183.256C219.971 183.256 220.391 183.22 220.751 183.148C221.111 183.052 221.495 182.908 221.903 182.716C222.047 182.164 222.167 181.456 222.263 180.592C222.359 179.728 222.407 178.9 222.407 178.108C222.407 176.164 222.095 174.688 221.471 173.68C220.871 172.672 219.971 172.168 218.771 172.168C217.979 172.168 217.175 172.276 216.359 172.492C216.191 172.852 216.059 173.44 215.963 174.256C215.867 175.048 215.819 175.96 215.819 176.992C215.819 179.008 216.131 180.556 216.755 181.636C217.403 182.716 218.315 183.256 219.491 183.256ZM235.93 183.796L237.046 183.112L245.47 162.7L251.59 162.16L258.79 181.6C259.03 182.224 259.198 182.632 259.294 182.824C259.39 183.016 259.57 183.28 259.834 183.616L260.482 184.444L260.266 187H250.15L249.79 183.58L252.346 182.932L251.194 179.296L243.886 179.404L243.094 181.672C243.022 181.888 242.986 182.068 242.986 182.212C242.986 182.38 243.01 182.512 243.058 182.608C243.13 182.68 243.238 182.74 243.382 182.788L245.866 183.832L245.506 187H236.074L235.93 183.796ZM247.702 168.316L245.326 175.228L249.97 175.444L247.702 168.316ZM261.882 183.688L264.402 182.932V165.688C264.402 165.16 264.354 164.824 264.258 164.68C264.186 164.512 263.982 164.332 263.646 164.14L262.062 163.312L262.242 160.576C262.722 160.48 263.094 160.42 263.358 160.396C266.526 159.82 268.734 159.508 269.982 159.46C270.222 160.012 270.378 160.636 270.45 161.332V181.744C270.45 182.248 270.486 182.584 270.558 182.752C270.63 182.92 270.834 183.1 271.17 183.292L272.934 184.3L272.79 187H261.99L261.882 183.688ZM288.913 171.088L288.121 181.744V181.888C288.121 182.344 288.289 182.644 288.625 182.788L290.857 183.724L290.497 187H281.533L281.173 183.796L282.829 182.788L284.881 168.892C284.905 168.724 284.917 168.52 284.917 168.28C284.917 167.992 284.845 167.776 284.701 167.632C284.581 167.488 284.341 167.308 283.981 167.092L282.325 166.156L282.541 162.736H292.873L298.021 179.512L303.133 162.736H312.781L312.925 166.516L310.621 167.092L312.565 181.204C312.637 181.684 312.733 182.056 312.853 182.32C312.997 182.584 313.309 183.016 313.789 183.616L314.545 184.588L314.329 187H303.601L303.277 183.688L306.229 182.932L305.005 170.872L300.397 187.144L294.241 187.684L288.913 171.088ZM324.834 187.432C322.026 187.432 319.854 186.58 318.318 184.876C316.806 183.172 316.05 180.82 316.05 177.82C316.05 175.732 316.422 173.944 317.166 172.456C317.91 170.944 318.966 169.792 320.334 169C321.702 168.208 323.298 167.812 325.122 167.812C327.834 167.812 329.91 168.676 331.35 170.404C332.814 172.132 333.51 174.592 333.438 177.784L322.494 179.8C322.83 180.808 323.298 181.552 323.898 182.032C324.522 182.488 325.338 182.716 326.346 182.716C327.042 182.716 327.87 182.62 328.83 182.428C329.79 182.212 330.762 181.924 331.746 181.564L332.574 185.128C331.686 185.8 330.534 186.352 329.118 186.784C327.702 187.216 326.274 187.432 324.834 187.432ZM327.534 174.76C327.486 173.848 327.222 173.188 326.742 172.78C326.286 172.348 325.638 172.132 324.798 172.132C324.102 172.132 323.442 172.228 322.818 172.42C322.314 173.596 322.086 174.868 322.134 176.236L327.534 174.76ZM336.282 160.36L342.402 158.74L343.914 164.212L337.758 165.868L336.282 160.36ZM339.774 195.172C338.55 194.524 337.614 193.948 336.966 193.444C336.318 192.964 335.478 192.208 334.446 191.176L337.326 187.828V174.184C337.326 173.656 337.29 173.32 337.218 173.176C337.146 173.008 336.942 172.828 336.606 172.636L334.986 171.772L335.166 169.072C335.502 169.024 335.742 168.976 335.886 168.928C336.15 168.88 337.086 168.712 338.694 168.424C340.326 168.136 341.682 167.968 342.762 167.92C343.002 168.712 343.206 169.48 343.374 170.224V182.932C343.374 185.38 343.194 187.42 342.834 189.052C342.474 190.684 341.79 192.232 340.782 193.696L339.774 195.172ZM355.426 187.468C352.378 187.468 350.098 186.688 348.586 185.128C347.098 183.568 346.354 181.18 346.354 177.964C346.354 175.9 346.726 174.1 347.47 172.564C348.238 171.028 349.33 169.852 350.746 169.036C352.162 168.22 353.83 167.812 355.75 167.812C361.966 167.812 365.074 171.028 365.074 177.46C365.074 180.604 364.222 183.064 362.518 184.84C360.838 186.592 358.474 187.468 355.426 187.468ZM356.002 183.256C356.482 183.256 356.902 183.22 357.262 183.148C357.622 183.052 358.006 182.908 358.414 182.716C358.558 182.164 358.678 181.456 358.774 180.592C358.87 179.728 358.918 178.9 358.918 178.108C358.918 176.164 358.606 174.688 357.982 173.68C357.382 172.672 356.482 172.168 355.282 172.168C354.49 172.168 353.686 172.276 352.87 172.492C352.702 172.852 352.57 173.44 352.474 174.256C352.378 175.048 352.33 175.96 352.33 176.992C352.33 179.008 352.642 180.556 353.266 181.636C353.914 182.716 354.826 183.256 356.002 183.256ZM366.685 183.58L368.881 182.932V174.184C368.881 173.656 368.845 173.32 368.773 173.176C368.701 173.008 368.509 172.828 368.197 172.636L366.613 171.772L366.721 169.072C367.129 168.976 367.477 168.916 367.765 168.892C370.669 168.292 372.817 167.968 374.209 167.92C374.425 168.544 374.629 169.324 374.821 170.26C376.261 169.132 377.485 168.352 378.493 167.92H380.545C380.521 168.832 380.461 169.828 380.365 170.908C380.269 171.964 380.149 172.816 380.005 173.464C379.141 173.416 378.505 173.392 378.097 173.392C377.089 173.392 376.045 173.452 374.965 173.572V181.744C374.965 182.248 375.001 182.584 375.073 182.752C375.145 182.92 375.337 183.1 375.649 183.292L377.809 184.444L377.665 187H366.865L366.685 183.58ZM397.495 187.432C394.855 187.432 392.179 187.024 389.467 186.208C389.587 183.832 389.779 181.624 390.043 179.584L392.815 179.044L394.615 182.104C396.055 182.608 397.327 182.86 398.431 182.86C398.815 182.86 399.631 182.752 400.879 182.536C400.927 182.056 400.951 181.732 400.951 181.564C400.951 180.988 400.855 180.556 400.663 180.268C400.471 179.956 400.051 179.62 399.403 179.26C398.755 178.876 397.591 178.312 395.911 177.568C393.847 176.56 392.359 175.48 391.447 174.328C390.535 173.152 390.079 171.772 390.079 170.188C390.079 167.716 390.919 165.784 392.599 164.392C394.279 163 396.583 162.304 399.511 162.304C400.927 162.304 402.331 162.448 403.723 162.736C405.139 163 406.375 163.372 407.431 163.852C407.383 165.196 407.275 166.864 407.107 168.856L406.999 170.404L404.371 170.8L401.635 167.308C400.771 167.044 399.691 166.912 398.395 166.912C397.579 166.912 396.967 166.984 396.559 167.128C396.439 167.608 396.379 167.98 396.379 168.244C396.379 168.772 396.511 169.24 396.775 169.648C397.039 170.032 397.507 170.44 398.179 170.872C398.851 171.28 399.847 171.796 401.167 172.42C403.087 173.332 404.539 174.136 405.523 174.832C406.507 175.528 407.191 176.26 407.575 177.028C407.983 177.772 408.187 178.684 408.187 179.764C408.187 182.14 407.239 184.012 405.343 185.38C403.447 186.748 400.831 187.432 397.495 187.432ZM417.931 187.468C415.819 187.468 414.259 186.952 413.251 185.92C412.243 184.864 411.739 183.268 411.739 181.132V172.384H409.219V169.756L415.699 163.852L417.787 164.104V168.172H423.835V172.42H417.787V179.836C417.787 180.988 417.943 181.756 418.255 182.14C418.591 182.524 419.227 182.716 420.163 182.716C420.955 182.716 422.059 182.608 423.475 182.392L423.907 186.064C423.043 186.472 422.071 186.808 420.991 187.072C419.935 187.336 418.915 187.468 417.931 187.468ZM431.036 187.468C429.404 187.468 428.096 187.024 427.112 186.136C426.128 185.224 425.636 184.06 425.636 182.644C425.636 180.748 426.584 179.26 428.48 178.18C430.4 177.1 433.184 176.488 436.832 176.344C436.832 175.216 436.736 174.388 436.544 173.86C436.376 173.308 436.052 172.936 435.572 172.744C435.116 172.528 434.408 172.42 433.448 172.42C432.464 172.42 431.768 172.456 431.36 172.528L429.884 175.444L427.22 175.264C426.812 173.344 426.524 171.352 426.356 169.288C427.7 168.832 429.164 168.472 430.748 168.208C432.356 167.944 433.856 167.812 435.248 167.812C437.792 167.812 439.616 168.316 440.72 169.324C441.824 170.308 442.376 171.952 442.376 174.256V181.78C442.376 182.212 442.412 182.512 442.484 182.68C442.58 182.848 442.772 183.016 443.06 183.184L444.5 184.012L444.356 186.244C441.572 186.892 439.376 187.252 437.768 187.324C437.72 187.18 437.648 186.928 437.552 186.568C437.456 186.184 437.372 185.824 437.3 185.488C436.364 186.088 435.332 186.568 434.204 186.928C433.1 187.288 432.044 187.468 431.036 187.468ZM433.448 183.4C434.408 183.4 435.572 183.076 436.94 182.428L436.796 179.692C436.22 179.644 435.836 179.62 435.644 179.62C434.996 179.62 434.24 179.692 433.376 179.836C432.512 179.956 431.828 180.1 431.324 180.268C431.252 180.58 431.216 180.868 431.216 181.132C431.216 181.852 431.408 182.416 431.792 182.824C432.2 183.208 432.752 183.4 433.448 183.4ZM445.786 183.544L448.018 182.896V174.184C448.018 173.656 447.982 173.32 447.91 173.176C447.838 173.008 447.646 172.828 447.334 172.636L445.75 171.772L445.858 169.072L446.65 168.928C449.794 168.304 452.062 167.968 453.454 167.92C453.646 168.424 453.802 168.976 453.922 169.576C455.386 168.904 456.574 168.448 457.486 168.208C458.422 167.944 459.298 167.812 460.114 167.812C463.93 167.812 465.838 170.092 465.838 174.652V181.708C465.838 182.212 465.874 182.548 465.946 182.716C466.018 182.884 466.222 183.064 466.558 183.256L468.286 184.264L468.142 186.964H458.206L458.026 183.544L459.79 183.04V176.236C459.79 175.156 459.754 174.4 459.682 173.968C459.61 173.536 459.406 173.2 459.07 172.96C458.758 172.72 458.194 172.6 457.378 172.6C456.514 172.6 455.422 172.732 454.102 172.996V181.708C454.102 182.212 454.138 182.548 454.21 182.716C454.282 182.884 454.474 183.064 454.786 183.256L456.55 184.264L456.406 186.964H445.966L445.786 183.544ZM476.499 187.468C474.195 187.468 472.395 186.604 471.099 184.876C469.803 183.148 469.155 180.832 469.155 177.928C469.155 174.592 470.031 172.072 471.783 170.368C473.559 168.664 476.079 167.812 479.343 167.812C479.535 167.812 480.159 167.836 481.215 167.884V165.724C481.215 165.196 481.179 164.848 481.107 164.68C481.035 164.512 480.831 164.332 480.495 164.14L478.875 163.312L479.055 160.576C481.359 160.168 483.063 159.892 484.167 159.748C485.271 159.58 486.147 159.484 486.795 159.46C487.011 160.012 487.167 160.636 487.263 161.332V181.816C487.263 182.248 487.299 182.548 487.371 182.716C487.467 182.884 487.671 183.052 487.983 183.22L489.351 184.048L489.207 186.28C486.855 186.88 484.551 187.24 482.295 187.36C482.127 186.904 481.959 186.352 481.791 185.704C480.159 186.88 478.395 187.468 476.499 187.468ZM478.587 182.86C479.379 182.86 480.267 182.596 481.251 182.068V172.744C480.531 172.432 479.607 172.276 478.479 172.276C477.567 172.276 476.691 172.396 475.851 172.636C475.659 173.092 475.503 173.716 475.383 174.508C475.287 175.3 475.239 176.176 475.239 177.136C475.239 179.104 475.503 180.556 476.031 181.492C476.583 182.404 477.435 182.86 478.587 182.86Z" fill="#8C1A77"/>
</g>
<g filter="url(#filter3_d_441_1518)">
<path d="M86.5389 334V325.456C88.7789 323.28 90.9549 321.136 93.0669 319.024C95.2429 316.912 97.2909 314.864 99.2109 312.88C102.283 309.808 104.811 306.992 106.795 304.432C108.843 301.872 110.379 299.344 111.403 296.848C112.427 294.288 112.939 291.568 112.939 288.688C112.939 284.976 112.043 282.096 110.251 280.048C108.523 278 106.155 276.976 103.147 276.976C102.763 276.976 102.347 276.976 101.899 276.976C101.515 276.976 101.131 277.008 100.747 277.072L99.4989 283.888C99.0509 287.216 98.1229 289.424 96.7149 290.512C95.3069 291.536 93.8669 292.048 92.3949 292.048C91.0509 292.048 89.8029 291.696 88.6509 290.992C87.5629 290.288 86.7309 289.328 86.1549 288.112C86.2829 284.592 87.3709 281.648 89.4189 279.28C91.4669 276.848 94.1549 275.024 97.4829 273.808C100.811 272.592 104.459 271.984 108.427 271.984C113.099 271.984 116.875 272.72 119.755 274.192C122.699 275.664 124.875 277.648 126.283 280.144C127.691 282.64 128.395 285.456 128.395 288.592C128.395 291.664 127.595 294.64 125.995 297.52C124.395 300.4 121.899 303.344 118.507 306.352C115.115 309.36 110.763 312.688 105.451 316.336C104.171 317.232 102.827 318.16 101.419 319.12C100.011 320.08 98.5709 321.104 97.0989 322.192H129.643V334H86.5389ZM151.53 303.76C151.53 310.928 151.882 316.432 152.586 320.272C153.29 324.112 154.25 326.768 155.466 328.24C156.682 329.712 158.058 330.448 159.594 330.448C161.13 330.448 162.506 329.712 163.722 328.24C164.938 326.768 165.898 324.112 166.602 320.272C167.37 316.368 167.754 310.864 167.754 303.76C167.754 296.592 167.37 291.088 166.602 287.248C165.898 283.344 164.938 280.656 163.722 279.184C162.506 277.712 161.13 276.976 159.594 276.976C158.058 276.976 156.682 277.712 155.466 279.184C154.25 280.656 153.29 283.312 152.586 287.152C151.882 290.992 151.53 296.528 151.53 303.76ZM159.594 271.984C163.562 271.984 167.274 273.104 170.73 275.344C174.186 277.52 176.97 280.944 179.082 285.616C181.258 290.288 182.346 296.336 182.346 303.76C182.346 311.12 181.258 317.136 179.082 321.808C176.97 326.48 174.186 329.936 170.73 332.176C167.274 334.352 163.562 335.44 159.594 335.44C155.626 335.44 151.914 334.352 148.458 332.176C145.002 329.936 142.218 326.48 140.106 321.808C138.058 317.136 137.034 311.12 137.034 303.76C137.034 296.336 138.058 290.288 140.106 285.616C142.218 280.944 145.002 277.52 148.458 275.344C151.914 273.104 155.626 271.984 159.594 271.984ZM200.009 302.896C197.577 302.896 195.529 302.064 193.865 300.4C192.201 298.736 191.369 296.72 191.369 294.352C191.369 291.984 192.201 289.936 193.865 288.208C195.529 286.48 197.577 285.616 200.009 285.616C202.441 285.616 204.489 286.48 206.153 288.208C207.817 289.936 208.649 291.984 208.649 294.352C208.649 296.72 207.817 298.736 206.153 300.4C204.489 302.064 202.441 302.896 200.009 302.896ZM200.009 335.44C197.577 335.44 195.529 334.608 193.865 332.944C192.201 331.28 191.369 329.264 191.369 326.896C191.369 324.528 192.201 322.48 193.865 320.752C195.529 319.024 197.577 318.16 200.009 318.16C202.441 318.16 204.489 319.024 206.153 320.752C207.817 322.48 208.649 324.528 208.649 326.896C208.649 329.264 207.817 331.28 206.153 332.944C204.489 334.608 202.441 335.44 200.009 335.44ZM231.863 299.824H234.647C238.295 299.824 241.143 298.896 243.191 297.04C245.303 295.12 246.359 292.08 246.359 287.92C246.359 284.272 245.495 281.552 243.767 279.76C242.103 277.904 239.703 276.976 236.567 276.976C236.311 276.976 236.023 276.976 235.703 276.976C235.383 276.976 235.063 277.008 234.743 277.072L233.783 283.312C233.399 285.744 232.535 287.472 231.191 288.496C229.911 289.456 228.407 289.936 226.679 289.936C224.247 289.936 222.455 288.912 221.303 286.864C221.495 283.344 222.455 280.496 224.183 278.32C225.975 276.144 228.279 274.544 231.095 273.52C233.975 272.496 237.047 271.984 240.311 271.984C247.415 271.984 252.695 273.456 256.151 276.4C259.671 279.344 261.431 282.992 261.431 287.344C261.431 290.352 260.375 293.232 258.263 295.984C256.151 298.736 252.663 300.752 247.799 302.032C253.431 303.056 257.399 304.944 259.703 307.696C262.071 310.384 263.255 313.808 263.255 317.968C263.255 321.296 262.295 324.304 260.375 326.992C258.519 329.616 255.799 331.696 252.215 333.232C248.695 334.704 244.407 335.44 239.351 335.44C232.695 335.44 227.607 334.064 224.087 331.312C220.567 328.56 218.679 324.656 218.423 319.6C218.999 318.064 219.831 316.976 220.919 316.336C222.071 315.632 223.223 315.28 224.375 315.28C226.359 315.28 227.927 315.888 229.079 317.104C230.231 318.32 231.031 320.56 231.479 323.824L232.343 330.256C232.727 330.32 233.079 330.384 233.399 330.448C233.783 330.448 234.167 330.448 234.551 330.448C243.191 330.448 247.511 326.128 247.511 317.488C247.511 313.52 246.455 310.48 244.343 308.368C242.231 306.256 239.191 305.2 235.223 305.2H231.863V299.824ZM284.374 303.76C284.374 310.928 284.726 316.432 285.43 320.272C286.134 324.112 287.094 326.768 288.31 328.24C289.526 329.712 290.902 330.448 292.438 330.448C293.974 330.448 295.35 329.712 296.566 328.24C297.782 326.768 298.742 324.112 299.446 320.272C300.214 316.368 300.598 310.864 300.598 303.76C300.598 296.592 300.214 291.088 299.446 287.248C298.742 283.344 297.782 280.656 296.566 279.184C295.35 277.712 293.974 276.976 292.438 276.976C290.902 276.976 289.526 277.712 288.31 279.184C287.094 280.656 286.134 283.312 285.43 287.152C284.726 290.992 284.374 296.528 284.374 303.76ZM292.438 271.984C296.406 271.984 300.118 273.104 303.574 275.344C307.03 277.52 309.814 280.944 311.926 285.616C314.102 290.288 315.19 296.336 315.19 303.76C315.19 311.12 314.102 317.136 311.926 321.808C309.814 326.48 307.03 329.936 303.574 332.176C300.118 334.352 296.406 335.44 292.438 335.44C288.47 335.44 284.758 334.352 281.302 332.176C277.846 329.936 275.062 326.48 272.95 321.808C270.902 317.136 269.878 311.12 269.878 303.76C269.878 296.336 270.902 290.288 272.95 285.616C275.062 280.944 277.846 277.52 281.302 275.344C284.758 273.104 288.47 271.984 292.438 271.984Z" fill="white"/>
</g>
<line x1="22" y1="0.5" x2="1149" y2="0.5" stroke="white"/>
</g>
<defs>
<filter id="filter0_d_441_1518" x="82.1553" y="48.9839" width="237.034" height="71.4561" filterUnits="userSpaceOnUse" color-interpolation-filters="sRGB">
<feFlood flood-opacity="0" result="BackgroundImageFix"/>
<feColorMatrix in="SourceAlpha" type="matrix" values="0 0 0 0 0 0 0 0 0 0 0 0 0 0 0 0 0 0 127 0" result="hardAlpha"/>
<feOffset dy="4"/>
<feGaussianBlur stdDeviation="2"/>
<feComposite in2="hardAlpha" operator="out"/>
<feColorMatrix type="matrix" values="0 0 0 0 0 0 0 0 0 0 0 0 0 0 0 0 0 0 0.25 0"/>
<feBlend mode="normal" in2="BackgroundImageFix" result="effect1_dropShadow_441_1518"/>
<feBlend mode="normal" in="SourceGraphic" in2="effect1_dropShadow_441_1518" result="shape"/>
</filter>
<filter id="filter1_d_441_1518" x="93.8438" y="396.74" width="414.093" height="44.4678" filterUnits="userSpaceOnUse" color-interpolation-filters="sRGB">
<feFlood flood-opacity="0" result="BackgroundImageFix"/>
<feColorMatrix in="SourceAlpha" type="matrix" values="0 0 0 0 0 0 0 0 0 0 0 0 0 0 0 0 0 0 127 0" result="hardAlpha"/>
<feOffset dy="4"/>
<feGaussianBlur stdDeviation="2"/>
<feComposite in2="hardAlpha" operator="out"/>
<feColorMatrix type="matrix" values="0 0 0 0 0 0 0 0 0 0 0 0 0 0 0 0 0 0 0.25 0"/>
<feBlend mode="normal" in2="BackgroundImageFix" result="effect1_dropShadow_441_1518"/>
<feBlend mode="normal" in="SourceGraphic" in2="effect1_dropShadow_441_1518" result="shape"/>
</filter>
<filter id="filter2_d_441_1518" x="101.374" y="158.74" width="391.978" height="44.4316" filterUnits="userSpaceOnUse" color-interpolation-filters="sRGB">
<feFlood flood-opacity="0" result="BackgroundImageFix"/>
<feColorMatrix in="SourceAlpha" type="matrix" values="0 0 0 0 0 0 0 0 0 0 0 0 0 0 0 0 0 0 127 0" result="hardAlpha"/>
<feOffset dy="4"/>
<feGaussianBlur stdDeviation="2"/>
<feComposite in2="hardAlpha" operator="out"/>
<feColorMatrix type="matrix" values="0 0 0 0 0 0 0 0 0 0 0 0 0 0 0 0 0 0 0.25 0"/>
<feBlend mode="normal" in2="BackgroundImageFix" result="effect1_dropShadow_441_1518"/>
<feBlend mode="normal" in="SourceGraphic" in2="effect1_dropShadow_441_1518" result="shape"/>
</filter>
<filter id="filter3_d_441_1518" x="82.1553" y="271.984" width="237.034" height="71.4561" filterUnits="userSpaceOnUse" color-interpolation-filters="sRGB">
<feFlood flood-opacity="0" result="BackgroundImageFix"/>
<feColorMatrix in="SourceAlpha" type="matrix" values="0 0 0 0 0 0 0 0 0 0 0 0 0 0 0 0 0 0 127 0" result="hardAlpha"/>
<feOffset dy="4"/>
<feGaussianBlur stdDeviation="2"/>
<feComposite in2="hardAlpha" operator="out"/>
<feColorMatrix type="matrix" values="0 0 0 0 0 0 0 0 0 0 0 0 0 0 0 0 0 0 0.25 0"/>
<feBlend mode="normal" in2="BackgroundImageFix" result="effect1_dropShadow_441_1518"/>
<feBlend mode="normal" in="SourceGraphic" in2="effect1_dropShadow_441_1518" result="shape"/>
</filter>
<clipPath id="clip0_441_1518">
<rect width="1200" height="513" fill="white"/>
</clipPath>
</defs>
</svg>
